<svg width="118" height="44" viewBox="0 0 118 44" fill="none" xmlns="http://www.w3.org/2000/svg">
<path d="M14.4683 33L7.89844 9.86279H7.70068C8.0083 13.8032 8.16211 16.8647 8.16211 19.0474V33H0.47168V0.875977H12.0293L18.731 23.6836H18.9067L25.4766 0.875977H37.0562V33H29.0801V18.9155C29.0801 18.1831 29.0874 17.3701 29.1021 16.4766C29.1313 15.583 29.2339 13.3931 29.4097 9.90674H29.2119L22.73 33H14.4683ZM59.71 33L58.062 29.7041H57.8862C56.729 31.1396 55.5498 32.1211 54.3486 32.6484C53.1475 33.1758 51.5947 33.4395 49.6904 33.4395C47.3467 33.4395 45.501 32.7363 44.1533 31.3301C42.8057 29.9238 42.1318 27.9463 42.1318 25.3975C42.1318 22.7461 43.0547 20.7759 44.9004 19.4868C46.7461 18.1831 49.4194 17.4507 52.9204 17.2896L57.0732 17.1577V16.8062C57.0732 14.7554 56.0625 13.73 54.041 13.73C52.2246 13.73 49.9175 14.3452 47.1196 15.5757L44.6367 9.90674C47.5371 8.4126 51.1992 7.66553 55.623 7.66553C58.8164 7.66553 61.2847 8.45654 63.0278 10.0386C64.7856 11.6206 65.6646 13.8325 65.6646 16.6743V33H59.71ZM53.3379 27.375C54.3779 27.375 55.2642 27.0454 55.9966 26.3862C56.7437 25.7271 57.1172 24.8701 57.1172 23.8154V21.8818L55.1396 21.9697C52.3125 22.0723 50.8989 23.1123 50.8989 25.0898C50.8989 26.6133 51.7119 27.375 53.3379 27.375ZM89.6367 8.10498H98.6895L102.908 22.3872C103.113 23.1343 103.252 24.0352 103.326 25.0898H103.501C103.619 24.0791 103.794 23.1929 104.029 22.4312L108.357 8.10498H117.125L107.281 34.582C106.021 37.9512 104.468 40.3315 102.623 41.7231C100.792 43.1147 98.3965 43.8105 95.4375 43.8105C94.2949 43.8105 93.123 43.686 91.9219 43.437V36.6914C92.6982 36.8672 93.5845 36.9551 94.5806 36.9551C95.3423 36.9551 96.0088 36.8086 96.5801 36.5156C97.1514 36.2227 97.6494 35.8052 98.0742 35.2632C98.499 34.7358 98.9531 33.8643 99.4365 32.6484L89.6367 8.10498Z" fill="#181818"/>
<path d="M86.5386 7.66553C87.2856 7.66553 87.9961 7.72412 88.6699 7.84131L89.1533 7.9292L88.3843 16.0371C87.6812 15.8613 86.707 15.7734 85.4619 15.7734C83.5869 15.7734 82.2246 16.2056 81.375 17.0698C80.5254 17.9194 80.1006 19.1499 80.1006 20.7612V33H71.5093V8.10498H77.9033L79.2437 12.082H79.6611C80.3789 10.7637 81.375 9.70166 82.6494 8.896C83.9385 8.07568 85.2349 7.66553 86.5386 7.66553Z" fill="#FD6E0A"/>
</svg>
